HIERARCHY
ROOT Pelvis
{
	OFFSET 0.000000 0.000000 0.000000
	CHANNELS 6 Xposition Yposition Zposition Zrotation Yrotation Xrotation 
	JOINT Left_hip
	{
		OFFSET 0.069463 -0.088608 -0.009542
		CHANNELS 3 Zrotation Yrotation Xrotation
		JOINT Left_knee
		{
			OFFSET 0.030639 -0.359740 -0.005288
			CHANNELS 3 Zrotation Yrotation Xrotation
			JOINT Left_ankle
			{
				OFFSET -0.011068 -0.376034 -0.042462
				CHANNELS 3 Zrotation Yrotation Xrotation
				JOINT Left_foot
				{
					OFFSET 0.023192 -0.053321 0.111332
					CHANNELS 3 Zrotation Yrotation Xrotation
					End Site
					{
						OFFSET 0.000000 0.000000 0.000000
					}
				}
			}
		}
	}
	JOINT Right_hip
	{
		OFFSET -0.067438 -0.088025 -0.006263
		CHANNELS 3 Zrotation Yrotation Xrotation
		JOINT Right_knee
		{
			OFFSET -0.035962 -0.366229 -0.008063
			CHANNELS 3 Zrotation Yrotation Xrotation
			JOINT Right_ankle
			{
				OFFSET 0.013608 -0.375719 -0.040481
				CHANNELS 3 Zrotation Yrotation Xrotation
				JOINT Right_foot
				{
					OFFSET -0.021034 -0.045527 0.114617
					CHANNELS 3 Zrotation Yrotation Xrotation
					End Site
					{
						OFFSET 0.000000 0.000000 0.000000
					}
				}
			}
		}
	}
	JOINT Spine1
	{
		OFFSET -0.002610 0.101823 -0.019986
		CHANNELS 3 Zrotation Yrotation Xrotation
		JOINT Spine2
		{
			OFFSET 0.004114 0.128714 -0.000938
			CHANNELS 3 Zrotation Yrotation Xrotation
			JOINT Spine3
			{
				OFFSET 0.002191 0.048470 0.027684
				CHANNELS 3 Zrotation Yrotation Xrotation
				JOINT Neck
				{
					OFFSET -0.002856 0.198873 -0.044022
					CHANNELS 3 Zrotation Yrotation Xrotation
					JOINT Head
					{
						OFFSET 0.002981 0.062960 0.049860
						CHANNELS 3 Zrotation Yrotation Xrotation
						End Site
						{
							OFFSET 0.000000 0.000000 0.000000
						}
					}
				}
				JOINT Left_collar
				{
					OFFSET 0.073708 0.112550 -0.033440
					CHANNELS 3 Zrotation Yrotation Xrotation
					JOINT Left_shoulder
					{
						OFFSET 0.083291 0.030786 -0.008013
						CHANNELS 3 Zrotation Yrotation Xrotation
						JOINT Left_elbow
						{
							OFFSET 0.245601 -0.011792 -0.027873
							CHANNELS 3 Zrotation Yrotation Xrotation
							JOINT Left_wrist
							{
								OFFSET 0.232258 0.008622 -0.000487
								CHANNELS 3 Zrotation Yrotation Xrotation
								JOINT Left_palm
								{
									OFFSET 0.077300 -0.009457 -0.012851
									CHANNELS 3 Zrotation Yrotation Xrotation
									End Site
									{
										OFFSET 0.000000 0.000000 0.000000
									}
								}
							}
						}
					}
				}
				JOINT Right_collar
				{
					OFFSET -0.075339 0.110574 -0.037874
					CHANNELS 3 Zrotation Yrotation Xrotation
					JOINT Right_shoulder
					{
						OFFSET -0.086522 0.031207 -0.009986
						CHANNELS 3 Zrotation Yrotation Xrotation
						JOINT Right_elbow
						{
							OFFSET -0.237313 -0.011478 -0.019859
							CHANNELS 3 Zrotation Yrotation Xrotation
							JOINT Right_wrist
							{
								OFFSET -0.237599 0.007976 -0.003742
								CHANNELS 3 Zrotation Yrotation Xrotation
								JOINT Right_palm
								{
									OFFSET -0.076920 -0.006943 -0.009920
									CHANNELS 3 Zrotation Yrotation Xrotation
									End Site
									{
										OFFSET 0.000000 0.000000 0.000000
									}
								}
							}
						}
					}
				}
			}
		}
	}
}
MOTION
Frames: 5
Frame Time: 0.100000
0.037165 -0.041527 0.284646 165.592222 59.852707 -36.680071 5.073690 -0.983774 8.007695 1.153209 -13.758175 11.467614 -5.856421 1.848109 -2.098674 0.350550 18.050772 -8.275656 0.287864 -7.139911 20.502685 -0.102712 -8.217043 0.229670 -7.157781 -8.877762 -7.538428 16.535003 -9.571363 3.247097 2.452008 1.439379 16.061701 0.403744 -3.228657 10.421495 2.350324 -1.469533 -2.325507 -1.261927 -7.670439 4.474827 -0.953990 -9.815171 -8.333386 -17.168292 -2.777460 1.320514 -38.902293 -16.679267 4.423190 156.481315 -60.709764 -126.066354 -20.497309 -13.856181 -20.802568 5.006661 2.007027 7.758355 14.762093 10.456227 -1.531998 50.538896 7.053488 19.118845 -168.254294 62.270128 -137.695097 12.827586 8.859957 -15.314316 0.729827 5.262779 7.515199 
0.020364 -0.044285 0.278079 166.849084 58.246648 -35.187671 4.973070 -0.218974 10.068287 1.183195 -12.483414 8.756782 -5.519598 1.996862 -1.848185 0.032451 17.927315 -7.848009 -0.480818 -6.859074 20.532117 -0.643201 -7.688339 0.364669 -6.277692 -8.195376 -7.207155 16.008058 -9.084019 2.905079 1.740871 1.605861 14.344425 -0.064313 -2.854114 10.227678 1.945407 -1.288263 -2.644611 -0.015168 -8.013264 4.887227 0.113646 -9.719500 -7.201009 -17.343788 -3.019582 0.941777 -38.856872 -17.828842 4.454736 153.987364 -60.485576 -124.399810 -20.637776 -14.028437 -20.897127 4.983364 2.132801 8.390250 14.476724 10.550612 -1.519378 50.896460 7.471773 19.672228 -169.199416 63.360504 -138.435658 15.207215 8.794014 -15.203972 -0.178802 5.215324 8.076290 
0.001092 -0.044668 0.269582 166.682154 57.132000 -36.780905 4.909208 0.623998 13.391884 1.044052 -12.705361 7.401708 -4.444903 1.971069 -3.124788 -1.044280 17.126186 -7.496123 -1.555629 -7.266858 22.054977 -1.298543 -6.897514 1.734629 -5.706334 -7.513579 -7.340098 16.583432 -8.971877 2.394970 1.328254 1.886019 13.290901 -0.638101 -2.883846 11.388536 1.541417 -1.018976 -2.262786 0.590996 -9.251812 7.027722 1.492893 -9.412990 -6.163053 -18.244293 -5.706495 0.977742 -43.158088 -20.035571 8.682466 159.732318 -64.685574 -129.628749 -13.867826 -13.231600 -21.059754 3.914606 1.764705 9.038638 13.770943 12.374960 -1.351376 50.390430 9.007956 19.723956 -172.862442 67.786789 -141.023863 13.286565 7.269136 -9.690429 -0.516953 5.970950 7.247364 
-0.013628 -0.043430 0.255068 165.830812 57.643022 -37.723430 4.109498 0.505493 14.139347 0.863144 -12.278043 6.951756 -3.835124 0.932456 -4.120929 -1.675742 16.638536 -6.840259 -2.442785 -7.110599 21.264313 -2.062547 -7.903211 4.448157 -5.165936 -7.241551 -7.917896 16.462309 -8.820032 2.878716 0.885623 1.615102 12.952508 -1.110173 -3.957227 12.446054 1.435799 -1.608278 -2.986400 0.544346 -7.465298 5.285922 1.553092 -7.697343 -6.591252 -18.995127 -14.091352 2.247409 -48.374509 -24.289078 16.452792 -179.365737 -67.676837 -147.183712 -15.655184 -15.424863 -17.841091 5.011211 2.078667 10.093695 12.908185 17.978187 -1.003372 50.156158 12.637557 21.237481 172.554759 74.000983 -153.167425 18.711874 6.214023 -3.811789 -3.396031 6.193782 7.705762 
-0.024911 -0.045380 0.241434 166.946791 56.227296 -35.632397 3.589173 1.539420 15.117019 0.851056 -11.370043 3.682570 -3.690417 0.467390 -3.545602 -1.656634 16.917602 -6.379827 -3.522323 -6.858513 20.459936 -2.414922 -7.162335 3.342426 -2.981801 -6.630610 -6.740331 13.799096 -7.290185 2.268822 1.239975 1.509326 11.543848 -1.242344 -4.316314 12.632638 1.540330 -1.260261 -3.748896 -0.688538 -4.961908 3.620492 0.316297 -6.375695 -8.409319 -16.268677 -19.850058 1.660452 -49.434733 -26.844589 19.701908 -158.133736 -69.718917 -163.687836 -17.132213 -14.182753 -8.956185 4.584856 2.126761 7.838345 10.641603 22.818752 -0.997402 49.969004 16.219870 22.206646 145.868548 77.505614 -176.971754 17.922457 5.279127 3.997919 -2.722779 6.347520 5.653556 
